<mxfile host="65bd71144e">
    <diagram id="mJjPVXNfMGWA3UkYehNH" name="概要図">
        <mxGraphModel dx="462" dy="535" grid="1" gridSize="10" guides="1" tooltips="1" connect="1" arrows="1" fold="1" page="1" pageScale="1" pageWidth="827" pageHeight="1169" background="none" math="0" shadow="0">
            <root>
                <mxCell id="0"/>
                <mxCell id="1" parent="0"/>
                <mxCell id="6" style="edgeStyle=none;html=1;labelBorderColor=none;strokeWidth=1;strokeColor=#FFFFFF;" parent="1" source="2" target="3" edge="1">
                    <mxGeometry relative="1" as="geometry"/>
                </mxCell>
                <mxCell id="2" value="Main Page" style="rounded=1;whiteSpace=wrap;html=1;labelBorderColor=none;strokeWidth=1;strokeColor=#FFFFFF;" parent="1" vertex="1">
                    <mxGeometry x="40" y="40" width="120" height="60" as="geometry"/>
                </mxCell>
                <mxCell id="7" style="edgeStyle=none;html=1;labelBorderColor=none;strokeWidth=1;strokeColor=#FFFFFF;" parent="1" source="3" target="4" edge="1">
                    <mxGeometry relative="1" as="geometry"/>
                </mxCell>
                <mxCell id="3" value="Game Start Page" style="rounded=1;whiteSpace=wrap;html=1;labelBorderColor=none;strokeWidth=1;strokeColor=#FFFFFF;" parent="1" vertex="1">
                    <mxGeometry x="40" y="120" width="120" height="60" as="geometry"/>
                </mxCell>
                <mxCell id="8" style="edgeStyle=none;html=1;labelBorderColor=none;strokeWidth=1;strokeColor=#FFFFFF;" parent="1" source="4" target="5" edge="1">
                    <mxGeometry relative="1" as="geometry"/>
                </mxCell>
                <mxCell id="4" value="Game Play Page" style="rounded=1;whiteSpace=wrap;html=1;labelBorderColor=none;strokeWidth=1;strokeColor=#FFFFFF;" parent="1" vertex="1">
                    <mxGeometry x="40" y="200" width="120" height="60" as="geometry"/>
                </mxCell>
                <mxCell id="10" style="edgeStyle=none;html=1;entryX=1;entryY=0.5;entryDx=0;entryDy=0;exitX=1;exitY=0.5;exitDx=0;exitDy=0;labelBorderColor=none;strokeWidth=1;strokeColor=#FFFFFF;" parent="1" source="5" target="2" edge="1">
                    <mxGeometry relative="1" as="geometry">
                        <Array as="points">
                            <mxPoint x="200" y="310"/>
                            <mxPoint x="200" y="70"/>
                        </Array>
                    </mxGeometry>
                </mxCell>
                <mxCell id="5" value="Game End Page" style="rounded=1;whiteSpace=wrap;html=1;labelBorderColor=none;strokeWidth=1;strokeColor=#FFFFFF;" parent="1" vertex="1">
                    <mxGeometry x="40" y="280" width="120" height="60" as="geometry"/>
                </mxCell>
            </root>
        </mxGraphModel>
    </diagram>
    <diagram id="GX43ihIx6zl8OXDdS4q9" name="コンポーネント設計">
        <mxGraphModel dx="462" dy="535" grid="1" gridSize="10" guides="1" tooltips="1" connect="1" arrows="1" fold="1" page="1" pageScale="1" pageWidth="827" pageHeight="1169" math="0" shadow="0">
            <root>
                <mxCell id="KwkNlJwj2sp8PngYq-wU-0"/>
                <mxCell id="KwkNlJwj2sp8PngYq-wU-1" parent="KwkNlJwj2sp8PngYq-wU-0"/>
                <mxCell id="KwkNlJwj2sp8PngYq-wU-2" value="Vue Component" style="shape=process;whiteSpace=wrap;html=1;backgroundOutline=1;strokeColor=#FFFFFF;strokeWidth=1;" vertex="1" parent="KwkNlJwj2sp8PngYq-wU-1">
                    <mxGeometry x="160" y="120" width="120" height="60" as="geometry"/>
                </mxCell>
                <mxCell id="KwkNlJwj2sp8PngYq-wU-7" style="edgeStyle=none;html=1;entryX=0;entryY=0.5;entryDx=0;entryDy=0;strokeColor=#FFFFFF;strokeWidth=1;" edge="1" parent="KwkNlJwj2sp8PngYq-wU-1" source="KwkNlJwj2sp8PngYq-wU-4" target="KwkNlJwj2sp8PngYq-wU-2">
                    <mxGeometry relative="1" as="geometry">
                        <Array as="points">
                            <mxPoint x="80" y="150"/>
                        </Array>
                    </mxGeometry>
                </mxCell>
                <mxCell id="KwkNlJwj2sp8PngYq-wU-4" value="Template" style="rounded=1;whiteSpace=wrap;html=1;strokeColor=#FFFFFF;strokeWidth=1;" vertex="1" parent="KwkNlJwj2sp8PngYq-wU-1">
                    <mxGeometry x="20" y="20" width="120" height="60" as="geometry"/>
                </mxCell>
                <mxCell id="KwkNlJwj2sp8PngYq-wU-8" style="edgeStyle=none;html=1;entryX=0.5;entryY=0;entryDx=0;entryDy=0;strokeColor=#FFFFFF;strokeWidth=1;" edge="1" parent="KwkNlJwj2sp8PngYq-wU-1" source="KwkNlJwj2sp8PngYq-wU-5" target="KwkNlJwj2sp8PngYq-wU-2">
                    <mxGeometry relative="1" as="geometry"/>
                </mxCell>
                <mxCell id="KwkNlJwj2sp8PngYq-wU-5" value="Script" style="rounded=1;whiteSpace=wrap;html=1;strokeColor=#FFFFFF;strokeWidth=1;" vertex="1" parent="KwkNlJwj2sp8PngYq-wU-1">
                    <mxGeometry x="160" y="20" width="120" height="60" as="geometry"/>
                </mxCell>
                <mxCell id="KwkNlJwj2sp8PngYq-wU-9" style="edgeStyle=none;html=1;entryX=1;entryY=0.5;entryDx=0;entryDy=0;strokeColor=#FFFFFF;strokeWidth=1;" edge="1" parent="KwkNlJwj2sp8PngYq-wU-1" source="KwkNlJwj2sp8PngYq-wU-6" target="KwkNlJwj2sp8PngYq-wU-2">
                    <mxGeometry relative="1" as="geometry">
                        <Array as="points">
                            <mxPoint x="360" y="150"/>
                        </Array>
                    </mxGeometry>
                </mxCell>
                <mxCell id="KwkNlJwj2sp8PngYq-wU-6" value="Style" style="rounded=1;whiteSpace=wrap;html=1;strokeColor=#FFFFFF;strokeWidth=1;" vertex="1" parent="KwkNlJwj2sp8PngYq-wU-1">
                    <mxGeometry x="300" y="20" width="120" height="60" as="geometry"/>
                </mxCell>
            </root>
        </mxGraphModel>
    </diagram>
</mxfile>